#!OML:ASF F:\VICON\USERDATA\INSTALL\rory3\rory3.ASF
:FULLY-SPECIFIED
:DEGREES
247
root -0.230979 21.4969 3.41235 10.9791 -85.1708 -12.57
lowerback 6.9583 -0.211022 -3.6228
upperback -6.58389 -0.879586 -0.585187
thorax -10.9414 -0.208979 1.55439
lowerneck -19.7361 -6.68679 -14.9075
upperneck -9.53194 -6.22852 12.4154
head 1.0852 -2.6798 5.84851
rclavicle -2.98177e-015 -1.11319e-014
rhumerus 90.9832 -31.0861 -35.927
rradius 29.9133
rwrist 18.3403
rhand -29.3719 -1.19405
rfingers 7.12502
rthumb -2.7109 -31.1566
lclavicle -2.98177e-015 -1.11319e-014
lhumerus 93.7254 23.5659 41.6577
lradius 24.1965
lwrist -5.58653
lhand -10.5296 33.0992
lfingers 7.12502
lthumb 15.4736 62.4999
rfemur -12.0887 3.61583 15.5153
rtibia 38.0291
rfoot 0.422227 -20.4821
rtoes 19.6603
lfemur -12.1405 -4.91333 -15.4469
ltibia 35.2059
lfoot 20.3324 -4.88276
ltoes -13.2258
248
root -0.217585 21.5756 3.43372 11.2069 -85.3776 -12.9924
lowerback 6.76116 -0.107718 -3.60966
upperback -6.51047 -0.718495 -0.515774
thorax -10.7471 -0.132742 1.59353
lowerneck -19.6702 -6.75987 -15.349
upperneck -9.29704 -6.23879 12.4694
head 1.16121 -2.66842 5.93295
rclavicle -1.39149e-015 -7.95139e-016
rhumerus 90.3768 -30.8139 -34.7903
rradius 30.2458
rwrist 18.1209
rhand -29.0153 -0.585784
rfingers 7.12502
rthumb -2.36645 -30.5524
lclavicle -1.39149e-015 -7.95139e-016
lhumerus 93.5194 23.5561 40.8533
lradius 24.082
lwrist -7.04856
lhand -11.2179 32.6296
lfingers 7.12502
lthumb 14.8106 62.0803
rfemur -11.8658 3.47216 15.7314
rtibia 38.1038
rfoot 1.93063 -19.0607
rtoes 17.6806
lfemur -11.988 -4.8804 -15.6046
ltibia 35.8623
lfoot 20.671 -6.19369
ltoes -13.9145
249
root -0.202996 21.6423 3.45544 10.1945 -85.5491 -12.1643
lowerback 6.53377 -0.0166728 -3.59362
upperback -6.39983 -0.587935 -0.614873
thorax -10.4937 -0.0808289 1.45555
lowerneck -19.7095 -6.83112 -15.3586
upperneck -9.12737 -6.32481 12.4625
head 1.22877 -2.70773 5.92003
rclavicle -2.88238e-015 -1.27222e-014
rhumerus 89.9222 -30.6087 -33.9561
rradius 30.2564
rwrist 18.0814
rhand -28.874 0.379594
rfingers 7.12502
rthumb -2.23002 -29.5885
lclavicle -2.88238e-015 -1.27222e-014
lhumerus 93.4364 23.4544 40.0408
lradius 24.1587
lwrist -8.6278
lhand -12.1948 31.8747
lfingers 7.12502
lthumb 13.8693 61.3923
rfemur -11.6153 3.50563 15.8571
rtibia 38.1808
rfoot 2.92641 -17.9583
rtoes 16.3221
lfemur -11.8563 -4.7896 -15.8092
ltibia 36.4639
lfoot 20.9892 -7.68041
ltoes -15.423
250
root -0.189586 21.7034 3.4752 8.6296 -85.6821 -10.7715
lowerback 6.31224 0.0404017 -3.70819
upperback -6.3106 -0.518945 -0.707907
thorax -10.2652 -0.0480331 1.40814
lowerneck -19.6634 -6.80083 -15.2101
upperneck -8.97275 -6.3207 12.33
head 1.25749 -2.71132 5.85139
rclavicle -5.66536e-015 1.35174e-014
rhumerus 89.07 -30.6086 -32.7029
rradius 30.4921
rwrist 17.8282
rhand -28.5299 0.591043
rfingers 7.12502
rthumb -1.89768 -29.3803
lclavicle -5.66536e-015 1.35174e-014
lhumerus 92.5677 23.7794 38.147
lradius 24.6744
lwrist -9.19399
lhand -13.3195 31.3755
lfingers 7.12502
lthumb 12.7852 60.964
rfemur -11.3619 3.64933 15.9646
rtibia 38.2485
rfoot 3.68226 -17.2201
rtoes 15.3453
lfemur -11.7404 -4.83498 -15.9564
ltibia 37.0172
lfoot 21.4396 -8.4085
ltoes -15.0482
251
root -0.177351 21.7481 3.49426 10.2525 -85.7182 -12.5192
lowerback 6.00813 0.0514753 -3.57802
upperback -6.22418 -0.469283 -0.686045
thorax -9.98823 -0.0377028 1.34965
lowerneck -19.6725 -6.81029 -15.2766
upperneck -8.66747 -6.31746 12.1464
head 1.34077 -2.70808 5.79752
rclavicle -6.95746e-016 -5.56597e-015
rhumerus 88.6329 -30.3942 -32.0065
rradius 30.6302
rwrist 18.1811
rhand -28.0928 0.229452
rfingers 7.12502
rthumb -1.47551 -29.7452
lclavicle -6.95746e-016 -5.56597e-015
lhumerus 91.5867 24.169 36.2895
lradius 25.2494
lwrist -9.51172
lhand -14.554 31.3855
lfingers 7.12502
lthumb 11.5948 61.0447
rfemur -11.1622 3.81816 16.3712
rtibia 38.2983
rfoot 4.5438 -16.5647
rtoes 16.1612
lfemur -11.6693 -4.99044 -15.8459
ltibia 37.5215
lfoot 21.9071 -8.81549
ltoes -15.2943
252
root -0.165248 21.7809 3.51134 11.7005 -85.7725 -14.0893
lowerback 5.69883 0.0751197 -3.49386
upperback -6.11231 -0.408 -0.674352
thorax -9.68158 -0.018924 1.30487
lowerneck -19.8674 -6.82365 -15.1747
upperneck -8.35323 -6.33194 11.9321
head 1.44886 -2.71592 5.70207
rclavicle 2.38542e-015 -1.66979e-014
rhumerus 88.3352 -30.1964 -31.5597
rradius 30.729
rwrist 18.4608
rhand -27.559 0.10208
rfingers 7.12502
rthumb -0.959998 -29.8755
lclavicle 2.38542e-015 -1.66979e-014
lhumerus 91.2665 24.2186 35.3421
lradius 25.5805
lwrist -10.2019
lhand -15.274 31.3404
lfingers 7.12502
lthumb 10.9004 61.0374
rfemur -10.96 4.06476 16.7867
rtibia 38.3509
rfoot 5.38772 -15.8711
rtoes 17.3729
lfemur -11.5603 -5.29897 -15.7606
ltibia 37.9693
lfoot 22.2849 -8.56338
ltoes -14.9467
253
root -0.153491 21.8025 3.52855 11.8747 -85.9359 -14.4399
lowerback 5.44398 0.133289 -3.50864
upperback -6.01418 -0.324039 -0.767112
thorax -9.4258 0.0141387 1.20224
lowerneck -19.8535 -6.76566 -14.848
upperneck -8.28053 -6.32585 11.8306
head 1.45528 -2.72294 5.61618
rclavicle 5.36719e-015 6.36111e-015
rhumerus 87.7643 -30.0922 -31.0565
rradius 30.9706
rwrist 17.9156
rhand -26.7579 0.592813
rfingers 7.12502
rthumb -0.1863 -29.3868
lclavicle 5.36719e-015 6.36111e-015
lhumerus 91.3941 23.9838 35.0465
lradius 25.7908
lwrist -11.4784
lhand -15.2032 31.1712
lfingers 7.12502
lthumb 10.9688 60.8646
rfemur -10.7197 4.13398 17.0225
rtibia 38.4286
rfoot 6.19562 -15.1062
rtoes 18.1859
lfemur -11.3429 -5.58331 -15.7837
ltibia 38.363
lfoot 22.4122 -7.61068
ltoes -12.41
254
root -0.139956 21.8081 3.5458 11.415 -86.0932 -14.1815
lowerback 5.2543 0.187935 -3.63863
upperback -5.93555 -0.254724 -0.806656
thorax -9.2306 0.0514054 1.22365
lowerneck -19.5872 -6.71455 -14.743
upperneck -8.38581 -6.31171 11.9361
head 1.38985 -2.72193 5.64017
rclavicle -9.93923e-015 -1.11319e-014
rhumerus 87.8777 -29.7295 -31.229
rradius 30.8949
rwrist 17.5103
rhand -25.7259 1.25164
rfingers 7.12502
rthumb 0.810433 -28.7266
lclavicle -9.93923e-015 -1.11319e-014
lhumerus 91.3056 23.7834 34.7307
lradius 26.0502
lwrist -12.1457
lhand -15.2983 30.6377
lfingers 7.12502
lthumb 10.877 60.336
rfemur -10.4695 4.00173 17.1891
rtibia 38.5228
rfoot 6.95252 -14.5237
rtoes 18.328
lfemur -11.0964 -5.81103 -15.8631
ltibia 38.699
lfoot 22.356 -8.02724
ltoes -13.6326
255
root -0.128041 21.8015 3.56106 11.8857 -86.2134 -14.7894
lowerback 5.03256 0.225465 -3.77346
upperback -5.86383 -0.194825 -0.710981
thorax -9.02377 0.0898303 1.39281
lowerneck -19.5696 -6.76587 -14.9184
upperneck -8.30278 -6.3454 12.087
head 1.42987 -2.72998 5.71231
rclavicle 3.57812e-015 5.56597e-015
rhumerus 87.7377 -29.59 -30.9209
rradius 30.9604
rwrist 16.7161
rhand -25.181 1.71849
rfingers 7.12502
rthumb 1.33679 -28.2571
lclavicle 3.57812e-015 5.56597e-015
lhumerus 91.063 23.6857 34.4361
lradius 26.2694
lwrist -11.8019
lhand -15.9867 29.9671
lfingers 7.12502
lthumb 10.213 59.6992
rfemur -10.2742 4.07214 17.4802
rtibia 38.6333
rfoot 7.4856 -14.2514
rtoes 17.4764
lfemur -10.9123 -5.96688 -15.8685
ltibia 38.9512
lfoot 22.2002 -8.66965
ltoes -15.9421
256
root -0.118001 21.7839 3.57644 13.9626 -86.3191 -16.9829
lowerback 4.74344 0.231557 -3.79336
upperback -5.83533 -0.168495 -0.642042
thorax -8.82265 0.102698 1.47354
lowerneck -19.5107 -6.72451 -14.9297
upperneck -8.12895 -6.29621 12.0974
head 1.46934 -2.70419 5.71983
rclavicle 1.19271e-014 -2.3059e-014
rhumerus 87.2677 -29.3655 -30.6162
rradius 30.6898
rwrist 17.8838
rhand -27.4991 2.24797
rfingers 7.12502
rthumb -0.902167 -27.7299
lclavicle 1.19271e-014 -2.3059e-014
lhumerus 90.9882 23.5007 34.5215
lradius 26.4932
lwrist -12.1884
lhand -15.5574 30.197
lfingers 7.12502
lthumb 10.6271 59.9083
rfemur -10.0914 4.14607 17.8813
rtibia 38.7579
rfoot 8.03037 -13.8082
rtoes 16.1064
lfemur -10.7467 -5.97075 -15.7138
ltibia 39.116
lfoot 22.0084 -8.24087
ltoes -14.4553
257
root -0.107743 21.7588 3.59182 13.8804 -86.4558 -17.0082
lowerback 4.45981 0.273841 -3.91888
upperback -5.77686 -0.110352 -0.676968
thorax -8.5955 0.132913 1.49992
lowerneck -19.4316 -6.67035 -14.8098
upperneck -8.11224 -6.25888 12.087
head 1.4558 -2.69002 5.70147
rclavicle -1.11319e-014 -7.95139e-016
rhumerus 88.4555 -28.5488 -32.1904
rradius 29.9661
rwrist 18.7524
rhand -27.369 2.40254
rfingers 7.12502
rthumb -0.776474 -27.5758
lclavicle -1.11319e-014 -7.95139e-016
lhumerus 91.0795 23.3299 34.6654
lradius 26.6425
lwrist -12.4191
lhand -14.8878 30.6515
lfingers 7.12502
lthumb 11.273 60.3286
rfemur -9.90579 4.21688 18.0881
rtibia 38.8942
rfoot 8.29555 -13.5479
rtoes 16.5176
lfemur -10.5808 -6.11221 -15.7096
ltibia 39.1869
lfoot 21.686 -7.64517
ltoes -12.6433
